HIERARCHY
ROOT root
{
	OFFSET 0.000000 0.000000 0.000000
	CHANNELS 6 Xposition Yposition Zposition Zrotation Yrotation Xrotation
	JOINT lhip
	{
		OFFSET 0.058581 -0.082280 -0.017664
		CHANNELS 3 Zrotation Yrotation Xrotation
		JOINT lknee
		{
			OFFSET 0.043451 -0.386469 0.008037
			CHANNELS 3 Zrotation Yrotation Xrotation
			JOINT lankle
			{
				OFFSET -0.014790 -0.426874 -0.037428
				CHANNELS 3 Zrotation Yrotation Xrotation
				JOINT ltoe
				{
					OFFSET 0.041054 -0.060286 0.122042
					CHANNELS 3 Zrotation Yrotation Xrotation
					End Site
					{
						OFFSET 0.000000 0.000000 0.000000
					}
				}
			}
		}
	}
	JOINT rhip
	{
		OFFSET -0.060310 -0.090513 -0.013543
		CHANNELS 3 Zrotation Yrotation Xrotation
		JOINT rknee
		{
			OFFSET -0.043257 -0.383688 -0.004843
			CHANNELS 3 Zrotation Yrotation Xrotation
			JOINT rankle
			{
				OFFSET 0.019056 -0.420046 -0.034562
				CHANNELS 3 Zrotation Yrotation Xrotation
				JOINT rtoe
				{
					OFFSET -0.034840 -0.062106 0.130323
					CHANNELS 3 Zrotation Yrotation Xrotation
					End Site
					{
						OFFSET 0.000000 0.000000 0.000000
					}
				}
			}
		}
	}
	JOINT lowerback
	{
		OFFSET 0.004439 0.124404 -0.038385
		CHANNELS 3 Zrotation Yrotation Xrotation
		JOINT upperback
		{
			OFFSET 0.004488 0.137956 0.026820
			CHANNELS 3 Zrotation Yrotation Xrotation
			JOINT chest
			{
				OFFSET -0.002265 0.056032 0.002855
				CHANNELS 3 Zrotation Yrotation Xrotation
				JOINT lowerneck
				{
					OFFSET -0.013390 0.211636 -0.033468
					CHANNELS 3 Zrotation Yrotation Xrotation
					JOINT upperneck
					{
						OFFSET 0.010113 0.088937 0.050410
						CHANNELS 3 Zrotation Yrotation Xrotation
						End Site
						{
							OFFSET 0.000000 0.000000 0.000000
						}
					}
				}
				JOINT lclavicle
				{
					OFFSET 0.071702 0.114000 -0.018898
					CHANNELS 3 Zrotation Yrotation Xrotation
					JOINT lshoulder
					{
						OFFSET 0.122921 0.045205 -0.019046
						CHANNELS 3 Zrotation Yrotation Xrotation
						JOINT lelbow
						{
							OFFSET 0.255332 -0.015649 -0.022946
							CHANNELS 3 Zrotation Yrotation Xrotation
							JOINT lwrist
							{
								OFFSET 0.265709 0.012698 -0.007375
								CHANNELS 3 Zrotation Yrotation Xrotation
								End Site
								{
									OFFSET 0.000000 0.000000 0.000000
								}
							}
						}
					}
				}
				JOINT rclavicle
				{
					OFFSET -0.082954 0.112472 -0.023707
					CHANNELS 3 Zrotation Yrotation Xrotation
					JOINT rshoulder
					{
						OFFSET -0.113228 0.046853 -0.008472
						CHANNELS 3 Zrotation Yrotation Xrotation
						JOINT relbow
						{
							OFFSET -0.260127 -0.014369 -0.031269
							CHANNELS 3 Zrotation Yrotation Xrotation
							JOINT rwrist
							{
								OFFSET -0.269108 0.006794 -0.006027
								CHANNELS 3 Zrotation Yrotation Xrotation
								End Site
								{
									OFFSET 0.000000 0.000000 0.000000
								}
							}
						}
					}
				}
			}
		}
	}
}
MOTION
Frames: 13
Frame Time: 0.033333
0.163173 0.523828 0.871582 -27.788753 7.027627 93.955142 22.528167 -4.426259 -47.680083 3.365638 1.147053 64.145426 1.484239 13.814153 -29.976609 0.000000 -0.000000 0.000000 1.239412 6.973197 -33.783969 -5.585467 -13.958150 66.532389 6.784777 -21.492631 -34.510741 0.000000 -0.000000 0.000000 -5.779098 2.073877 26.311530 4.558897 -1.216365 -11.079251 3.842030 -3.508448 -2.004672 -0.103592 8.182060 -10.890156 -2.019086 5.698829 6.231961 -28.558733 -8.438085 -3.679606 -16.114921 -19.081923 -16.310980 97.285716 -43.456024 -85.446946 42.620853 -20.495428 1.779353 31.336846 10.309904 -4.129823 22.544189 16.114062 3.808296 -76.295649 68.522540 -70.362075 -36.110566 22.889571 -10.823044 
0.154472 0.530652 0.865699 -19.271558 9.721564 94.462196 22.669196 -0.888818 -53.583413 3.849592 -0.632351 65.953543 1.697596 11.057735 -27.374942 0.000000 -0.000000 0.000000 4.219380 5.450946 -30.938959 -7.452469 -19.577867 64.301168 6.164807 -23.164185 -36.734697 0.000000 -0.000000 0.000000 -5.384973 1.593932 29.691217 8.170307 -3.791069 -13.850878 6.873874 -7.058605 -0.837664 -0.196496 7.363262 -10.168476 -1.169722 6.935025 4.511961 -26.578934 -11.998351 -1.757958 -16.830406 -25.548163 -17.351818 97.579452 -43.537628 -83.302588 43.222124 -19.702337 1.330593 29.370743 5.571726 -7.134301 26.791219 9.608590 4.878814 -76.931221 69.258535 -69.540203 -35.346437 21.741421 -12.003027 
0.147428 0.536670 0.860054 -12.890736 11.757922 94.582934 23.180149 1.576716 -57.344214 2.938214 -1.356081 66.743687 2.434794 8.796673 -25.863456 0.000000 -0.000000 0.000000 6.186419 2.250085 -28.943475 -7.862098 -23.669828 63.455159 5.713414 -23.266614 -37.451939 0.000000 -0.000000 0.000000 -4.962648 1.671626 33.224311 10.968824 -5.649981 -16.394362 9.269709 -9.916438 0.000066 -0.960502 6.825028 -9.637455 -0.017750 8.230669 2.865508 -23.507353 -15.442020 0.155123 -18.265168 -31.607270 -18.645189 96.212262 -43.306428 -79.843145 43.380937 -18.933879 0.699291 26.250473 1.618549 -8.691192 32.199743 3.411642 5.467198 -74.908602 68.652594 -66.182231 -33.630388 20.221332 -12.640572 
0.141278 0.541388 0.854599 -9.284926 13.007198 94.617801 24.535617 3.580738 -59.004410 1.927258 -0.810786 66.762587 2.709542 7.159561 -25.941757 0.000000 -0.000000 0.000000 7.201149 0.016595 -28.563616 -7.521815 -26.044273 64.384645 6.003074 -23.224111 -37.642767 0.000000 -0.000000 0.000000 -5.128277 2.216545 35.077368 12.961556 -6.724883 -17.438761 10.575765 -11.644714 0.637018 -1.110274 6.681833 -8.549681 1.143530 8.797929 1.057765 -19.956031 -17.588097 1.757575 -20.521624 -36.959966 -18.797642 93.252129 -43.232050 -76.925348 44.809360 -19.455334 -0.256273 22.880098 -1.530053 -9.057459 37.350981 -0.771232 6.336459 -68.714569 67.418220 -60.006003 -31.308381 19.122204 -12.956648 
0.136694 0.542984 0.849515 -8.459358 13.362228 94.393933 25.930152 5.070693 -59.053274 1.383014 0.566129 66.768042 2.548025 6.954972 -26.477474 0.000000 -0.000000 0.000000 7.651828 -0.430057 -28.688026 -7.969917 -26.946441 65.836395 6.024438 -23.281193 -38.190943 0.000000 -0.000000 0.000000 -5.655500 2.920646 35.329378 13.540691 -7.217540 -17.032639 10.931584 -12.013415 0.513513 -0.944469 6.832894 -6.898321 1.803521 8.840320 -0.128466 -17.913232 -19.122497 2.771925 -22.680085 -39.625562 -17.412209 89.658766 -43.784171 -73.535798 45.956249 -19.120538 -1.368120 20.597374 -2.738728 -8.225419 39.540493 -2.968256 6.488114 -60.735674 67.063566 -51.754506 -31.865900 18.080666 -13.607326 
0.135846 0.543516 0.844137 -9.397674 12.982091 94.067303 27.148522 4.921245 -58.664954 1.720484 2.234493 67.668065 2.036213 7.484481 -27.441185 0.000000 -0.000000 0.000000 7.578384 0.495907 -29.260266 -9.509770 -26.677923 67.311229 6.038212 -23.607721 -39.086567 0.000000 -0.000000 0.000000 -5.788225 2.811569 35.367354 12.678422 -6.889023 -17.075804 10.205999 -11.404986 0.712846 -0.827307 7.000888 -6.685910 1.924771 8.515174 0.455867 -18.188597 -19.012183 2.843904 -24.749846 -40.240103 -14.784346 88.498672 -44.775166 -73.002124 44.752291 -19.236459 -2.886640 20.153107 -2.421127 -7.940232 38.571516 -2.726959 7.016458 -57.242538 67.558737 -48.212904 -31.127671 18.779626 -13.371675 
0.138195 0.543604 0.838782 -12.412965 11.773598 93.964707 27.513994 3.894973 -58.024857 2.729828 3.627682 68.823842 1.535944 8.977351 -28.158967 0.000000 -0.000000 0.000000 6.447166 2.328882 -31.017050 -10.381018 -24.881612 69.121410 6.175745 -23.670677 -39.487042 0.000000 -0.000000 0.000000 -5.684068 2.309718 34.602406 10.528480 -5.735741 -17.132993 8.467719 -10.271032 1.179875 -0.708189 7.265527 -8.011356 1.386120 8.053534 1.980090 -20.926808 -17.247180 2.156912 -25.084676 -38.587040 -12.794438 89.791072 -46.037188 -73.633377 44.177107 -19.626156 -1.699261 21.847786 -1.014614 -7.957943 35.122629 0.378194 7.408550 -56.993100 68.914474 -48.239350 -32.154829 19.059652 -13.259259 
0.143625 0.542007 0.834128 -17.253303 9.986101 93.999476 26.906069 2.653369 -56.947349 4.057445 4.489322 70.273634 0.665050 10.635591 -29.203149 0.000000 -0.000000 0.000000 4.113804 3.334834 -33.528874 -10.650293 -22.237895 71.446456 6.397229 -22.618741 -39.322198 0.000000 -0.000000 0.000000 -5.174383 1.760772 32.867143 7.356893 -4.329846 -16.111506 6.150571 -8.354964 0.732311 -0.733946 7.281910 -8.775031 0.817691 7.748227 3.226313 -24.758095 -14.662064 1.073572 -23.922081 -34.885972 -12.824667 91.762958 -47.118091 -75.805426 43.044216 -19.806933 0.425056 24.308109 1.672350 -6.689047 31.062611 5.463733 6.184978 -57.693444 70.151966 -49.646471 -33.373224 19.254459 -13.186873 
0.149649 0.539661 0.830585 -23.645584 8.282628 93.717131 26.089117 1.291729 -54.955855 4.719706 4.070093 71.762208 -1.070185 12.461328 -29.674710 0.000000 -0.000000 0.000000 1.949436 3.331467 -35.865915 -10.229016 -19.007144 73.397902 6.471932 -20.558722 -38.903806 0.000000 -0.000000 0.000000 -4.382540 1.465220 31.561982 3.747267 -2.470912 -15.365604 3.421769 -5.668494 0.493171 -0.488775 7.437851 -9.826258 0.396923 7.295379 4.745443 -27.842849 -11.037870 -1.109809 -23.560079 -29.766565 -12.539360 94.737144 -47.199066 -79.275329 41.274653 -18.085257 0.101403 26.384850 5.015033 -5.442116 28.108459 11.828857 4.931568 -56.884232 70.334869 -49.629633 -33.950689 19.428466 -12.443166 
0.155935 0.536918 0.828041 -30.867675 6.702327 93.142846 25.195023 -1.031890 -51.771506 4.202209 1.849952 72.974949 -1.909580 13.995879 -30.573852 0.000000 -0.000000 0.000000 -0.128101 2.868842 -38.022136 -9.132785 -16.250183 74.932162 6.139718 -18.564832 -38.222565 0.000000 -0.000000 0.000000 -3.720193 1.290571 31.231456 -0.094261 -0.233616 -15.006264 0.836522 -2.369803 0.004090 -0.241517 7.310076 -10.693576 0.474557 6.722395 5.677599 -30.715433 -7.415302 -3.933984 -22.534588 -23.488882 -13.414610 96.989916 -47.760905 -82.723143 40.153704 -17.545819 0.189183 27.704123 9.291744 -3.625806 26.201551 18.043361 3.138653 -55.999903 69.642513 -50.012214 -35.563858 19.969512 -11.508669 
0.161527 0.534264 0.824343 -38.624748 5.437794 92.853010 24.909575 -4.844882 -46.966555 1.699801 -3.144700 73.934942 -3.025540 14.155303 -32.118063 0.000000 -0.000000 0.000000 -1.738402 2.437717 -40.896863 -8.585967 -14.187148 76.860243 5.812213 -16.674642 -37.368143 0.000000 -0.000000 0.000000 -3.322424 1.618382 30.633695 -3.806226 2.461208 -14.884678 -1.438327 1.188248 -0.695159 0.147266 7.211523 -10.661319 0.638478 6.062347 5.940321 -32.368733 -3.962895 -6.847717 -22.381773 -16.578001 -13.812877 97.265365 -48.205744 -84.666821 39.730759 -17.887068 0.193548 27.771694 14.195753 -1.359062 25.522658 22.795369 1.664383 -57.716261 67.920767 -53.195328 -36.757100 20.009818 -11.273036 
0.166035 0.530678 0.821114 -46.475358 4.213660 92.083864 23.844709 -9.848540 -39.745436 -1.968799 -8.565662 74.247884 -4.502956 13.986204 -34.679982 0.000000 -0.000000 0.000000 -2.951632 2.358282 -42.907363 -8.373067 -12.469715 78.308385 5.571334 -14.341540 -36.688594 0.000000 -0.000000 0.000000 -3.419415 2.684977 31.079602 -7.337967 5.212957 -15.223446 -3.027924 4.359611 -1.606447 0.617304 7.656250 -10.490670 0.560330 4.461076 6.018286 -32.608652 -1.643414 -8.810711 -22.957480 -9.550777 -13.075996 95.134565 -46.387573 -85.042819 40.499282 -18.767412 0.604344 27.339845 19.272910 0.692096 24.439211 26.465335 0.110071 -58.890319 66.202809 -55.994296 -37.942341 20.228171 -10.896926 
0.170234 0.527532 0.816140 -53.609105 3.367124 91.611017 22.453972 -14.762580 -32.912913 -3.935616 -11.253098 73.699077 -5.399703 14.535755 -37.965763 0.000000 -0.000000 0.000000 -3.913311 2.940448 -44.960966 -8.613396 -11.503621 79.571373 5.270173 -12.414938 -36.370922 0.000000 -0.000000 0.000000 -3.460300 3.945433 31.196008 -10.447495 7.816123 -15.803389 -4.036296 6.660340 -2.111050 0.858280 8.193232 -9.828845 0.143581 2.859042 5.146835 -31.692774 0.609439 -9.538133 -24.160054 -4.146520 -12.153791 91.725942 -44.189449 -83.991820 40.903414 -20.447926 1.136106 26.368866 23.602573 2.502006 23.338366 30.003133 -1.323865 -57.950762 64.328384 -55.280538 -38.128197 21.415099 -9.494241 
